name C:\Users\antoi\Documents\MyRepositories\upper-imu-dc\Results\main_tracking\Case_99\kinematics.mot
datacolumns 43
datarows 13
range 0.90000000 1.14000000
endheader 
time	clav_prot	clav_elev	scapula_abduction	scapula_elevation	scapula_upward_rot	scapula_winging	plane_elv	shoulder_elv	axial_rot	TrapeziusScapula_M/activation	TrapeziusScapula_S/activation	TrapeziusScapula_I/activation	TrapeziusClavicle_S/activation	SerratusAnterior_I/activation	SerratusAnterior_M/activation	SerratusAnterior_S/activation	Rhomboideus_S/activation	Rhomboideus_I/activation	LevatorScapulae/activation	Coracobrachialis/activation	DeltoideusClavicle_A/activation	DeltoideusScapula_P/activation	DeltoideusScapula_M/activation	LatissimusDorsi_S/activation	LatissimusDorsi_M/activation	LatissimusDorsi_I/activation	PectoralisMajorClavicle_S/activation	PectoralisMajorThorax_I/activation	PectoralisMajorThorax_M/activation	TeresMajor/activation	Infraspinatus_I/activation	Infraspinatus_S/activation	PectoralisMinor/activation	TeresMinor/activation	Subscapularis_S/activation	Subscapularis_M/activation	Subscapularis_I/activation	Supraspinatus_P/activation	Supraspinatus_A/activation	TRIlong/activation	BIC_long/activation	BIC_brevis/activation	
          0.90000000	        -23.08537499	         -4.95311523	        -14.67859206	         -3.87185538	         10.41653400	          6.27082863	        -11.48959366	         16.87163044	         40.17586453	          0.02591618	          0.01427609	          0.02394207	          0.05327932	          0.01298607	          0.02647016	          0.03877093	          0.04159128	          0.05512412	          0.09030335	          0.02594744	          0.01141884	          0.09389936	          0.04049468	          0.03878794	          0.04034207	          0.03672315	          0.02104376	          0.04317688	          0.02726157	          0.08936329	          0.01000000	          0.01000000	          0.05028670	          0.01087863	          0.06948636	          0.07092462	          0.09008342	          0.03356214	          0.02924762	          0.09820280	          0.01955066	          0.02312017	
          0.92000000	        -23.09813574	         -5.07152578	        -14.81601295	         -3.89031955	         10.14766712	          6.37649101	        -11.22123240	         17.26139303	         39.85171266	          0.02991271	          0.01783706	          0.02653936	          0.05968907	          0.01616422	          0.03071472	          0.04292515	          0.04662819	          0.06132498	          0.10008784	          0.02922891	          0.01554508	          0.10273565	          0.04955656	          0.04309278	          0.04462134	          0.04112816	          0.02449249	          0.04530617	          0.03003397	          0.09343785	          0.01000000	          0.01358440	          0.05361888	          0.01872814	          0.07218620	          0.07435498	          0.09336381	          0.03826051	          0.03169941	          0.10368942	          0.02343511	          0.02561724	
          0.94000000	        -23.12126682	         -5.13171235	        -14.95050322	         -3.88354210	          9.94779899	          6.44642333	        -10.92831095	         17.61486078	         39.52843175	          0.03484628	          0.02312137	          0.03028361	          0.06694525	          0.02167625	          0.03734808	          0.04797638	          0.05292754	          0.06824889	          0.10989799	          0.03521049	          0.02244789	          0.10876325	          0.05727700	          0.04813486	          0.04952757	          0.04665026	          0.03116650	          0.04906973	          0.03617145	          0.09724124	          0.01000000	          0.02134282	          0.05681985	          0.02689527	          0.07680596	          0.07916311	          0.09735729	          0.04474240	          0.03720229	          0.10745404	          0.03033047	          0.03117951	
          0.96000000	        -23.13674964	         -5.13214782	        -15.04706836	         -3.84958889	          9.81953025	          6.47881021	        -10.59635054	         17.92827069	         39.20741600	          0.03864190	          0.02864246	          0.03228061	          0.07263303	          0.02648869	          0.04378688	          0.05206928	          0.05844552	          0.07419195	          0.11714554	          0.04039907	          0.02830316	          0.11281824	          0.06335258	          0.05202524	          0.05320871	          0.05124332	          0.03715879	          0.05207470	          0.04168117	          0.10046271	          0.01130108	          0.02727843	          0.05896120	          0.03268350	          0.08132867	          0.08364250	          0.10114563	          0.05032964	          0.04249527	          0.11006782	          0.03657406	          0.03609851	
          0.98000000	        -23.15207521	         -5.07633499	        -15.11630582	         -3.79260300	          9.76613652	          6.47431622	        -10.21959601	         18.19798069	         38.89363755	          0.04095771	          0.03326680	          0.03254454	          0.07599446	          0.02977104	          0.04894997	          0.05458770	          0.06235437	          0.07841610	          0.12143205	          0.04410994	          0.03232868	          0.11447561	          0.06704278	          0.05435115	          0.05532669	          0.05429172	          0.04154717	          0.05376066	          0.04565569	          0.10259418	          0.01322261	          0.03050990	          0.05968060	          0.03577005	          0.08492793	          0.08701229	          0.10409487	          0.05425286	          0.04676959	          0.11116211	          0.04131263	          0.03966695	
          1.00000000	        -23.16476688	         -4.97203618	        -15.15255621	         -3.71838575	          9.78715845	          6.43576124	         -9.79213866	         18.42292626	         38.59008554	          0.04201673	          0.03677544	          0.03163827	          0.07742518	          0.03189767	          0.05298857	          0.05586839	          0.06479025	          0.08104162	          0.12334102	          0.04651345	          0.03483889	          0.11446239	          0.06877665	          0.05538580	          0.05618275	          0.05601581	          0.04445145	          0.05438697	          0.04823977	          0.10358764	          0.01428362	          0.03219121	          0.05939864	          0.03729680	          0.08718427	          0.08897552	          0.10577400	          0.05668757	          0.04986156	          0.11109976	          0.04460317	          0.04198756	
          1.02000000	        -23.17303081	         -4.82906377	        -15.15226020	         -3.63356165	          9.87927605	          6.36735322	         -9.31116710	         18.60425442	         38.29836451	          0.04223955	          0.03930838	          0.03018936	          0.07769504	          0.03338851	          0.05636099	          0.05642663	          0.06623749	          0.08257601	          0.12370402	          0.04796417	          0.03632080	          0.11370840	          0.06942372	          0.05562512	          0.05627480	          0.05688787	          0.04630050	          0.05439430	          0.04984580	          0.10395146	          0.01463530	          0.03292728	          0.05862060	          0.03788005	          0.08854676	          0.09003799	          0.10670142	          0.05812437	          0.05214658	          0.11048789	          0.04686628	          0.04340544	
          1.04000000	        -23.17608009	         -4.65772927	        -15.11450755	         -3.54455826	         10.03694926	          6.27394669	         -8.77635046	         18.74499661	         38.01890711	          0.04196899	          0.04108301	          0.02859759	          0.07744013	          0.03460451	          0.05944850	          0.05662921	          0.06710578	          0.08345014	          0.12315026	          0.04878046	          0.03717235	          0.11285414	          0.06964280	          0.05544852	          0.05597878	          0.05728366	          0.04748408	          0.05409178	          0.05082794	          0.10408866	          0.01451541	          0.03313878	          0.05768054	          0.03793332	          0.08942673	          0.09064045	          0.10731495	          0.05897583	          0.05395179	          0.10974963	          0.04846696	          0.04424008	
          1.06000000	        -23.17378955	         -4.46729947	        -15.04058208	         -3.45651042	         10.25287629	          6.16039102	         -8.18888162	         18.84964699	         37.75195105	          0.04142745	          0.04220628	          0.02707821	          0.07706589	          0.03570789	          0.06242990	          0.05666863	          0.06766215	          0.08396325	          0.12211140	          0.04916628	          0.03763647	          0.11220121	          0.06981804	          0.05507211	          0.05549785	          0.05742372	          0.04825629	          0.05359951	          0.05139929	          0.10423054	          0.01406645	          0.03305716	          0.05665690	          0.03767843	          0.09008812	          0.09105578	          0.10787448	          0.05949899	          0.05547052	          0.10909666	          0.04964117	          0.04469998	
          1.08000000	        -23.16617812	         -4.26489460	        -14.93323226	         -3.37246783	         10.51830250	          6.03111850	         -7.55041159	         18.92374677	         37.49904845	          0.04073479	          0.04289749	          0.02562587	          0.07674933	          0.03674065	          0.06539701	          0.05664032	          0.06804907	          0.08426717	          0.12083154	          0.04925075	          0.03785190	          0.11181044	          0.07013559	          0.05460955	          0.05494853	          0.05742974	          0.04876417	          0.05301036	          0.05170744	          0.10447887	          0.01335744	          0.03279171	          0.05564327	          0.03721920	          0.09068732	          0.09143049	          0.10850548	          0.05983780	          0.05680540	          0.10858860	          0.05053605	          0.04490723	
          1.10000000	        -23.15310326	         -4.05513652	        -14.79608091	         -3.29324139	         10.82345473	          5.88998061	         -6.86251606	         18.97344016	         37.26360137	          0.03996249	          0.04327714	          0.02422492	          0.07657495	          0.03768981	          0.06835141	          0.05657853	          0.06834836	          0.08443518	          0.11950079	          0.04913212	          0.03791609	          0.11157658	          0.07062835	          0.05410502	          0.05436642	          0.05736468	          0.04911646	          0.05236686	          0.05186235	          0.10485000	          0.01242396	          0.03238739	          0.05462358	          0.03659640	          0.09131377	          0.09183350	          0.10924503	          0.06007966	          0.05804070	          0.10818586	          0.05127219	          0.04495616	
          1.12000000	        -23.13439239	         -3.84062928	        -14.63338263	         -3.21801892	         11.15832427	          5.74026138	         -6.12690525	         19.00484211	         37.04994820	          0.03915594	          0.04345919	          0.02285179	          0.07655450	          0.03854540	          0.07127062	          0.05650223	          0.06860364	          0.08449331	          0.11823243	          0.04889919	          0.03790141	          0.11133367	          0.07123437	          0.05357981	          0.05376910	          0.05726579	          0.04939600	          0.05172574	          0.05195867	          0.10531893	          0.01130432	          0.03185851	          0.05360143	          0.03583029	          0.09201887	          0.09229208	          0.11008342	          0.06027954	          0.05924967	          0.10781132	          0.05194746	          0.04493026	
          1.14000000	        -23.11026996	         -3.62300382	        -14.45001518	         -3.14547532	         11.51362314	          5.58479238	         -5.34615007	         19.02329473	         36.86144857	          0.03834901	          0.04351875	          0.02152646	          0.07666121	          0.03931377	          0.07412521	          0.05642202	          0.06883841	          0.08445752	          0.11709535	          0.04862006	          0.03785172	          0.11094935	          0.07185995	          0.05304883	          0.05317028	          0.05715671	          0.04965719	          0.05114350	          0.05206372	          0.10586620	          0.01008614	          0.03119035	          0.05259455	          0.03491475	          0.09283716	          0.09282051	          0.11100741	          0.06047172	          0.06049551	          0.10740808	          0.05263417	          0.04489132	
